<?xml version="1.0" encoding="iso-8859-1"?>

<!DOCTYPE svg PUBLIC "-//W3C//DTD SVG 1.1//EN" "http://www.w3.org/Graphics/SVG/1.1/DTD/svg11.dtd">
<!-- Uploaded to: SVG Repo, www.svgrepo.com, Generator: SVG Repo Mixer Tools -->
<svg height="800px" width="800px" version="1.1" id="_x34_" xmlns="http://www.w3.org/2000/svg" xmlns:xlink="http://www.w3.org/1999/xlink" 
	 viewBox="0 0 512 512"  xml:space="preserve">
<g>
	<g>
		<path style="fill:#87B65F;" d="M469.108,0.002c-23.729,0-42.892,19.228-42.892,42.892V246.23L288.279,350.277l-32.282,24.372
			L85.779,246.23V42.893c0-18.07-11.125-33.503-26.944-39.741c-4.887-2.058-10.289-3.151-15.948-3.151H469.108z"/>
		<path style="fill:#FBF5C4;" d="M437.855,0.002c-24.115,9.517-25.337,31.831-25.337,42.892v196.906L278.762,340.76l-23.536,17.813
			L97.868,239.799V42.893c0-16.077-2.829-34.982-23.729-42.892H437.855z"/>
		<g style="opacity:0.6;">
			<path style="fill:#87B65F;" d="M124.258,236.633c-2.537,0-5.011-1.029-6.808-2.826c-1.8-1.8-2.825-4.271-2.825-6.808
				s1.025-5.008,2.825-6.808c3.566-3.597,10.019-3.597,13.616,0c1.797,1.8,2.826,4.271,2.826,6.808s-1.029,5.008-2.826,6.808
				C129.266,235.605,126.795,236.633,124.258,236.633z"/>
			<path style="fill:#87B65F;" d="M124.234,56.27c-5.338,0-9.582,4.308-9.582,9.646c0,5.338,4.244,9.646,9.582,9.646
				c5.338,0,9.646-4.308,9.646-9.646C133.88,60.577,129.571,56.27,124.234,56.27z M124.234,96.59c-5.338,0-9.582,4.244-9.582,9.581
				c0,5.338,4.244,9.646,9.582,9.646c5.338,0,9.646-4.308,9.646-9.646C133.88,100.833,129.571,96.59,124.234,96.59z
				 M124.234,136.845c-5.338,0-9.582,4.308-9.582,9.646c0,5.273,4.244,9.582,9.582,9.582c5.338,0,9.646-4.309,9.646-9.582
				C133.88,141.153,129.571,136.845,124.234,136.845z M124.234,177.101c-2.572,0-4.823,0.964-6.559,2.572
				c-1.865,1.801-3.022,4.309-3.022,7.074c0,5.337,4.244,9.646,9.582,9.646c2.765,0,5.273-1.158,7.074-3.087
				c1.608-1.672,2.572-3.988,2.572-6.559C133.88,181.409,129.571,177.101,124.234,177.101z"/>
			<path style="fill:#87B65F;" d="M122.972,35.321c-2.537,0-5.039-1.026-6.808-2.826c-1.797-1.766-2.826-4.271-2.826-6.808
				c0-2.534,1.029-5.008,2.826-6.805c3.566-3.565,10.019-3.565,13.616,0c1.8,1.797,2.825,4.271,2.825,6.805
				c0,2.537-1.025,5.043-2.825,6.808C127.983,34.296,125.509,35.321,122.972,35.321z"/>
			<path style="fill:#87B65F;" d="M389.022,35.321c-2.537,0-5.011-1.026-6.808-2.826c-1.8-1.797-2.826-4.271-2.826-6.808
				c0-2.534,1.026-5.008,2.826-6.805c3.562-3.597,10.019-3.597,13.613,0c1.8,1.797,2.829,4.271,2.829,6.805
				c0,2.537-1.029,5.011-2.829,6.808C394.031,34.296,391.559,35.321,389.022,35.321z"/>
			<path style="fill:#87B65F;" d="M387.568,56.27c-5.337,0-9.646,4.308-9.646,9.646c0,5.338,4.308,9.582,9.646,9.582
				s9.646-4.244,9.646-9.582C397.214,60.577,392.905,56.27,387.568,56.27z M387.568,96.525c-5.337,0-9.646,4.308-9.646,9.646
				c0,5.338,4.308,9.646,9.646,9.646s9.646-4.308,9.646-9.646C397.214,100.833,392.905,96.525,387.568,96.525z M387.568,136.845
				c-5.337,0-9.646,4.308-9.646,9.582c0,5.337,4.308,9.646,9.646,9.646s9.646-4.309,9.646-9.646
				C397.214,141.153,392.905,136.845,387.568,136.845z M387.568,177.101c-5.337,0-9.646,4.308-9.646,9.646
				c0,5.273,4.308,9.646,9.646,9.646s9.646-4.373,9.646-9.646C397.214,181.409,392.905,177.101,387.568,177.101z"/>
			<path style="fill:#87B65F;" d="M387.577,236.633c-2.537,0-5.011-1.029-6.808-2.826c-1.8-1.8-2.826-4.271-2.826-6.808
				s1.026-5.008,2.826-6.808c3.566-3.563,10.019-3.597,13.616,0c1.797,1.8,2.825,4.271,2.825,6.808s-1.029,5.008-2.825,6.808
				C392.585,235.605,390.114,236.633,387.577,236.633z"/>
			<path style="fill:#87B65F;" d="M362.36,246.037c-1.865-2.508-4.759-3.795-7.717-3.795c-1.993,0-4.051,0.579-5.788,1.93
				c-4.244,3.215-5.08,9.196-1.865,13.505c1.865,2.507,4.759,3.794,7.653,3.794c2.058,0,4.116-0.643,5.852-1.93
				c2.508-1.864,3.794-4.759,3.794-7.716C364.289,249.831,363.71,247.773,362.36,246.037z M329.435,270.859
				c-1.865-2.508-4.759-3.794-7.717-3.794c-1.993,0-4.051,0.578-5.788,1.93c-4.244,3.215-5.08,9.26-1.865,13.503
				c1.865,2.509,4.759,3.795,7.652,3.795c2.058,0,4.116-0.579,5.852-1.929c2.508-1.865,3.794-4.759,3.794-7.652
				C331.364,274.653,330.785,272.595,329.435,270.859z M296.51,295.746c-1.93-2.508-4.823-3.858-7.781-3.858
				c-1.993,0-3.987,0.643-5.723,1.929c-4.244,3.215-5.08,9.26-1.865,13.505c1.865,2.507,4.759,3.858,7.717,3.858
				c1.993,0,4.051-0.643,5.787-1.993c2.508-1.865,3.794-4.759,3.794-7.653C298.439,299.476,297.861,297.482,296.51,295.746z"/>
			<path style="fill:#87B65F;" d="M255.917,335.989c-2.537,0-5.011-1.029-6.808-2.794c-1.8-1.831-2.826-4.302-2.826-6.808
				c0-2.537,1.025-5.043,2.826-6.84c3.597-3.566,10.019-3.566,13.616,0c1.797,1.797,2.826,4.303,2.826,6.84
				c0,2.506-1.029,4.977-2.826,6.808C260.926,334.961,258.454,335.989,255.917,335.989z"/>
			<path style="fill:#87B65F;" d="M163.011,244.172c-1.736-1.35-3.859-1.93-5.852-1.93c-2.958,0-5.852,1.287-7.717,3.795
				c-3.151,4.244-2.315,10.289,1.929,13.504c1.736,1.287,3.794,1.93,5.787,1.93c2.958,0,5.852-1.351,7.717-3.858
				c1.286-1.736,1.929-3.795,1.929-5.788C166.804,248.93,165.518,246.037,163.011,244.172z M195.871,268.995
				c-1.736-1.287-3.73-1.93-5.788-1.93c-2.894,0-5.787,1.286-7.716,3.858c-3.151,4.244-2.315,10.225,1.929,13.44
				c1.736,1.35,3.794,1.929,5.787,1.929c2.958,0,5.788-1.286,7.717-3.795c1.286-1.736,1.929-3.729,1.929-5.787
				C199.729,273.818,198.379,270.923,195.871,268.995z M228.796,293.816c-1.736-1.286-3.73-1.929-5.723-1.929
				c-2.958,0-5.852,1.35-7.717,3.858c-3.215,4.18-2.379,10.29,1.801,13.441c1.736,1.35,3.794,1.993,5.852,1.993
				c2.894,0,5.788-1.351,7.652-3.858c1.351-1.736,1.93-3.795,1.93-5.788C232.59,298.575,231.304,295.681,228.796,293.816z"/>
		</g>
		<g>
			<path style="fill:#87B65F;" d="M218.764,131.701c-1.029-4.63-3.601-9.002-7.588-13.054c-2.122-2.057-4.759-3.729-7.974-5.016
				c-3.151-1.221-6.881-1.864-11.189-1.864c-3.473,0-6.559,0.514-9.26,1.608c-2.766,1.029-4.759,2.251-6.109,3.601V94.918h41.413
				V78.134h-58.39v57.811h17.105c0.643-1.993,1.93-3.923,3.794-5.659c1.865-1.801,4.759-2.7,8.553-2.7
				c4.63,0,7.845,1.608,9.71,4.759c1.865,3.151,2.829,7.716,2.829,13.632c0,3.28-0.257,6.238-0.772,8.875
				c-0.578,2.636-1.608,4.759-3.279,6.431c-2.187,2.185-5.145,3.28-8.874,3.28c-3.987,0-6.881-1.094-8.874-3.28
				c-1.993-2.251-3.215-5.338-3.665-9.389H157.48c0.322,3.729,0.965,7.46,1.993,11.061c1.094,3.665,3.215,7.073,6.367,10.224
				c2.186,2.251,5.209,4.116,9.067,5.788c3.794,1.608,8.424,2.443,13.826,2.443c5.337,0,9.903-0.835,13.568-2.443
				c3.666-1.672,6.688-3.602,9.003-5.917c3.729-3.729,6.173-7.717,7.331-12.025c1.157-4.244,1.736-9.26,1.736-15.048
				C220.372,141.089,219.793,136.33,218.764,131.701z"/>
			<path style="fill:#87B65F;" d="M287.443,94.724c-1.672-3.794-3.923-6.945-6.752-9.582c-2.829-2.572-6.109-4.565-9.903-5.851
				c-3.794-1.351-7.781-2.058-11.897-2.058c-4.18,0-8.167,0.707-11.961,2.058c-3.73,1.286-7.01,3.28-9.903,5.851
				c-2.894,2.637-5.145,5.788-6.817,9.582c-1.672,3.795-2.508,8.103-2.508,12.99v43.214c0,4.887,0.836,9.196,2.508,12.99
				c1.672,3.795,3.923,6.946,6.817,9.582c2.893,2.572,6.173,4.566,9.903,5.852c3.794,1.35,7.781,2.057,11.961,2.057
				c4.116,0,8.103-0.707,11.897-2.057c3.794-1.287,7.073-3.28,9.903-5.852c2.829-2.636,5.08-5.787,6.752-9.582
				c1.672-3.794,2.508-8.103,2.508-12.99v-43.214C289.951,102.827,289.115,98.519,287.443,94.724z M271.302,150.735
				c0,4.309-1.157,7.717-3.408,10.161c-2.251,2.444-5.273,3.666-9.003,3.666c-3.73,0-6.752-1.222-9.067-3.666
				c-2.315-2.444-3.408-5.852-3.408-10.161v-42.699c0-4.309,1.093-7.717,3.408-10.225c2.315-2.507,5.337-3.729,9.067-3.729
				c3.73,0,6.752,1.222,9.003,3.729c2.251,2.508,3.408,5.917,3.408,10.225V150.735z"/>
			<path style="fill:#87B65F;" d="M218.764,131.701c-1.029-4.63-3.601-9.002-7.588-13.054c-2.122-2.057-4.759-3.729-7.974-5.016
				c-3.151-1.221-6.881-1.864-11.189-1.864c-3.473,0-6.559,0.514-9.26,1.608c-2.766,1.029-4.759,2.251-6.109,3.601V94.918h41.413
				V78.134h-58.39v57.811h17.105c0.643-1.993,1.93-3.923,3.794-5.659c1.865-1.801,4.759-2.7,8.553-2.7
				c4.63,0,7.845,1.608,9.71,4.759c1.865,3.151,2.829,7.716,2.829,13.632c0,3.28-0.257,6.238-0.772,8.875
				c-0.578,2.636-1.608,4.759-3.279,6.431c-2.187,2.185-5.145,3.28-8.874,3.28c-3.987,0-6.881-1.094-8.874-3.28
				c-1.993-2.251-3.215-5.338-3.665-9.389H157.48c0.322,3.729,0.965,7.46,1.993,11.061c1.094,3.665,3.215,7.073,6.367,10.224
				c2.186,2.251,5.209,4.116,9.067,5.788c3.794,1.608,8.424,2.443,13.826,2.443c5.337,0,9.903-0.835,13.568-2.443
				c3.666-1.672,6.688-3.602,9.003-5.917c3.729-3.729,6.173-7.717,7.331-12.025c1.157-4.244,1.736-9.26,1.736-15.048
				C220.372,141.089,219.793,136.33,218.764,131.701z"/>
		</g>
		<g>
			<path style="fill:#5C925A;" d="M85.803,42.902v22.831H0V42.902C0,19.203,19.203,0,42.902,0S85.803,19.203,85.803,42.902z"/>
			<path style="fill:#5C925A;" d="M512,42.893v22.829h-85.784V42.893c0-23.664,19.163-42.892,42.892-42.892
				c6.559,0,12.733,1.479,18.263,4.18c9.003,4.18,16.334,11.51,20.514,20.514C510.521,30.225,512,36.399,512,42.893z"/>
		</g>
		<g>
			<path style="fill:#87B65F;" d="M205.774,17.815v24.437c0,2.186-0.643,3.857-1.865,5.08c-1.222,1.222-2.83,1.865-4.952,1.865
				c-2.058,0-3.665-0.643-4.887-1.865c-1.222-1.222-1.8-2.893-1.8-5.08V17.815h-7.588v24.693c0,1.993,0.386,3.858,1.093,5.466
				c0.772,1.608,1.801,2.958,3.087,4.116c1.286,1.158,2.765,2.057,4.502,2.701c1.736,0.578,3.601,0.9,5.595,0.9
				s3.923-0.322,5.595-0.9c1.736-0.644,3.28-1.543,4.566-2.701c1.286-1.158,2.315-2.508,3.022-4.116
				c0.772-1.608,1.158-3.473,1.158-5.466V17.815H205.774z"/>
			<path style="fill:#87B65F;" d="M248.795,25.017c-0.579-1.415-1.415-2.637-2.508-3.729c-1.093-1.094-2.443-1.93-4.051-2.509
				c-1.608-0.642-3.408-0.964-5.402-0.964h-15.112v37.555h7.652V41.222h7.459c1.993,0,3.794-0.257,5.402-0.9
				c1.608-0.579,2.958-1.479,4.051-2.508c1.094-1.093,1.93-2.315,2.508-3.729c0.579-1.479,0.836-2.958,0.836-4.566
				C249.631,27.975,249.374,26.431,248.795,25.017z M240.564,33.247c-0.965,0.965-2.379,1.415-4.116,1.415h-7.074V24.374h7.074
				c1.736,0,3.151,0.45,4.116,1.415c1.029,0.965,1.479,2.186,1.479,3.73C242.043,31.062,241.593,32.348,240.564,33.247z"/>
			<path style="fill:#87B65F;" d="M265.836,17.815v6.559h10.161v30.995h7.588V24.374h10.16v-6.559H265.836z"/>
			<path style="fill:#87B65F;" d="M327.249,31.768c-0.064-1.479-0.193-2.765-0.45-3.986c-0.257-1.222-0.643-2.316-1.222-3.344
				c-0.515-1.029-1.222-1.994-2.251-2.958c-1.286-1.287-2.765-2.251-4.437-2.959c-1.672-0.643-3.665-1.029-5.916-1.029
				c-2.251,0-4.244,0.386-5.917,1.029c-1.736,0.707-3.215,1.672-4.501,2.959c-1.029,0.964-1.736,1.929-2.315,2.958
				c-0.514,1.028-0.9,2.122-1.093,3.344c-0.257,1.221-0.386,2.507-0.45,3.986c-0.064,1.415-0.129,3.023-0.129,4.823
				c0,1.801,0.064,3.408,0.129,4.887c0.064,1.415,0.193,2.766,0.45,3.988c0.193,1.221,0.579,2.314,1.093,3.344
				c0.579,1.028,1.286,1.993,2.315,2.958c1.286,1.221,2.766,2.251,4.501,2.893c1.672,0.707,3.665,1.029,5.917,1.029
				c2.251,0,4.244-0.322,5.916-1.029c1.672-0.643,3.151-1.672,4.437-2.893c1.029-0.965,1.736-1.929,2.251-2.958
				c0.579-1.03,0.965-2.123,1.222-3.344c0.258-1.222,0.386-2.573,0.45-3.988c0.064-1.479,0.064-3.086,0.064-4.887
				C327.313,34.791,327.313,33.184,327.249,31.768z M319.596,41.093c-0.064,1.158-0.129,2.122-0.321,2.894
				c-0.129,0.771-0.322,1.35-0.579,1.8c-0.193,0.514-0.514,0.965-0.9,1.351c-0.515,0.578-1.222,1.093-1.993,1.479
				c-0.836,0.385-1.801,0.578-2.829,0.578c-1.094,0-1.993-0.193-2.829-0.578c-0.836-0.386-1.544-0.901-2.122-1.479
				c-0.322-0.386-0.643-0.837-0.9-1.351c-0.193-0.45-0.386-1.029-0.579-1.8c-0.129-0.772-0.193-1.736-0.257-2.894
				c-0.064-1.222-0.064-2.701-0.064-4.502c0-1.8,0-3.28,0.064-4.437c0.064-1.157,0.129-2.186,0.257-2.958
				c0.193-0.772,0.386-1.35,0.579-1.865c0.257-0.451,0.579-0.9,0.9-1.286c0.578-0.579,1.286-1.094,2.122-1.415
				c0.836-0.386,1.736-0.579,2.829-0.579c1.029,0,1.993,0.193,2.829,0.579c0.772,0.321,1.479,0.835,1.993,1.415
				c0.386,0.385,0.707,0.835,0.9,1.286c0.258,0.515,0.45,1.093,0.579,1.865c0.193,0.772,0.257,1.801,0.321,2.958
				c0.129,1.157,0.129,2.637,0.129,4.437C319.725,38.392,319.725,39.871,319.596,41.093z"/>
		</g>
		<g>
			<path style="fill:#87B65F;" d="M359.787,155.622c-0.578-1.35-1.415-2.443-2.444-3.344c-1.093-0.9-2.25-1.543-3.601-2.057
				c-1.415-0.45-2.829-0.707-4.437-0.707c-1.543,0-3.022,0.258-4.373,0.707c-1.351,0.514-2.572,1.158-3.601,2.057
				c-1.029,0.901-1.865,1.994-2.508,3.344c-0.578,1.351-0.9,2.894-0.9,4.63v7.781c0,1.801,0.322,3.344,0.9,4.694
				c0.643,1.287,1.479,2.444,2.508,3.344c1.029,0.9,2.251,1.608,3.601,2.057c1.351,0.451,2.829,0.644,4.373,0.644
				c1.608,0,3.023-0.193,4.437-0.644c1.351-0.45,2.508-1.157,3.601-2.057c1.029-0.9,1.865-2.057,2.444-3.344
				c0.579-1.35,0.9-2.894,0.9-4.694v-7.781C360.688,158.516,360.366,156.973,359.787,155.622z M353.292,167.84
				c0,2.894-1.286,4.373-3.987,4.373c-2.636,0-3.987-1.479-3.987-4.373v-7.267c0-2.958,1.351-4.437,3.987-4.437
				c2.701,0,3.987,1.479,3.987,4.437V167.84z M340.753,122.441l-26.43,55.882h8.038l26.43-55.882H340.753z M324.162,128.099
				c-0.579-1.35-1.415-2.443-2.444-3.343c-0.965-0.9-2.187-1.608-3.601-2.057c-1.351-0.451-2.829-0.708-4.309-0.708
				c-1.608,0-3.087,0.258-4.437,0.708c-1.415,0.45-2.637,1.157-3.665,2.057c-1.029,0.9-1.865,1.993-2.444,3.343
				c-0.643,1.287-0.9,2.894-0.9,4.631v7.781c0,1.801,0.257,3.344,0.9,4.695c0.578,1.286,1.415,2.443,2.444,3.343
				c1.029,0.9,2.251,1.608,3.665,2.057c1.35,0.451,2.829,0.644,4.437,0.644c1.479,0,2.958-0.193,4.309-0.644
				c1.415-0.45,2.636-1.157,3.601-2.057c1.029-0.9,1.865-2.058,2.444-3.343c0.643-1.351,0.9-2.894,0.9-4.695v-7.781
				C325.062,130.993,324.805,129.386,324.162,128.099z M317.731,140.189c0,2.958-1.351,4.501-3.923,4.501
				c-2.701,0-4.051-1.543-4.051-4.501v-7.139c0-2.958,1.35-4.437,4.051-4.437c2.572,0,3.923,1.479,3.923,4.437V140.189z"/>
		</g>
		<g>
			<path style="fill:#87B65F;" d="M229.053,223.852c-0.064-2.187-0.321-4.18-0.643-6.045c-0.386-1.8-0.965-3.472-1.736-5.015
				c-0.772-1.544-1.865-3.023-3.28-4.438c-1.929-1.93-4.051-3.408-6.495-4.438c-2.444-1.028-5.338-1.543-8.617-1.543
				c-3.28,0-6.174,0.515-8.617,1.543c-2.443,1.029-4.63,2.508-6.559,4.438c-1.415,1.415-2.508,2.893-3.28,4.438
				c-0.772,1.543-1.351,3.215-1.672,5.015c-0.321,1.865-0.578,3.858-0.643,6.045c-0.064,2.122-0.129,4.566-0.129,7.266
				c0,2.701,0.064,5.145,0.129,7.332c0.064,2.185,0.321,4.179,0.643,5.98c0.322,1.865,0.9,3.537,1.672,5.08
				c0.772,1.543,1.865,3.022,3.28,4.437c1.929,1.865,4.116,3.344,6.559,4.372c2.444,1.03,5.337,1.544,8.617,1.544
				c3.28,0,6.174-0.514,8.617-1.544c2.444-1.028,4.566-2.507,6.495-4.372c1.415-1.415,2.508-2.893,3.28-4.437
				c0.772-1.543,1.351-3.215,1.736-5.08c0.322-1.801,0.579-3.795,0.643-5.98c0.064-2.187,0.129-4.631,0.129-7.332
				C229.182,228.417,229.117,225.974,229.053,223.852z M217.992,237.87c-0.129,1.736-0.257,3.215-0.515,4.372
				c-0.193,1.094-0.45,2.058-0.836,2.766c-0.322,0.707-0.772,1.351-1.286,1.929c-0.772,0.9-1.8,1.672-2.958,2.251
				c-1.222,0.579-2.572,0.836-4.116,0.836c-1.543,0-2.894-0.257-4.051-0.836c-1.222-0.579-2.251-1.35-3.087-2.251
				c-0.515-0.578-0.965-1.222-1.286-1.929c-0.386-0.707-0.643-1.671-0.836-2.766c-0.257-1.157-0.386-2.636-0.45-4.372
				c-0.064-1.801-0.128-4.051-0.128-6.752c0-2.7,0.064-4.952,0.128-6.687c0.064-1.801,0.193-3.28,0.45-4.438
				c0.193-1.157,0.45-2.057,0.836-2.829c0.321-0.707,0.772-1.35,1.286-1.93c0.836-0.9,1.865-1.608,3.087-2.186
				c1.158-0.514,2.508-0.836,4.051-0.836c1.543,0,2.894,0.322,4.116,0.836c1.157,0.578,2.186,1.286,2.958,2.186
				c0.515,0.579,0.965,1.222,1.286,1.93c0.386,0.772,0.643,1.672,0.836,2.829c0.257,1.158,0.386,2.637,0.515,4.438
				c0.129,1.736,0.129,3.987,0.129,6.687C218.121,233.819,218.121,236.069,217.992,237.87z"/>
			<path style="fill:#87B65F;" d="M277.733,212.727v-9.903h-37.298v56.59h11.061v-22.958h22.314v-9.839h-22.314v-13.89H277.733z"/>
			<path style="fill:#87B65F;" d="M324.612,212.727v-9.903h-37.298v56.59h11.061v-22.958h22.314v-9.839h-22.314v-13.89H324.612z"/>
		</g>
	</g>
	<path style="opacity:0.1;fill:#040000;" d="M469.093,0c-0.063,0-0.124,0.009-0.187,0.009h-25.592L149.242,294.081l106.755,80.57
		l170.194-128.449V109.19V65.733h85.803V42.903C511.994,19.203,492.792,0,469.093,0z"/>
</g>
</svg>