<?xml version="1.0" encoding="iso-8859-1"?>
<!-- Uploaded to: SVG Repo, www.svgrepo.com, Generator: SVG Repo Mixer Tools -->
<svg height="800px" width="800px" version="1.1" id="Layer_1" xmlns="http://www.w3.org/2000/svg" xmlns:xlink="http://www.w3.org/1999/xlink" 
	 viewBox="0 0 512 512" xml:space="preserve">
<path style="fill:#507C5C;" d="M459.798,334.814c-3.191,0-6.412-0.974-9.188-2.994c-6.981-5.081-8.521-14.86-3.44-21.841
	c4.004-5.502,4.67-15.323,5.375-25.721c0.63-9.288,1.28-18.892,4.32-28.246c2.92-8.999,7.947-16.922,12.806-24.585
	c5.689-8.969,11.063-17.44,11.063-24.791c0-7.353-5.375-15.823-11.063-24.791c-4.859-7.662-9.885-15.586-12.807-24.588
	c-3.036-9.352-3.686-18.956-4.318-28.245c-0.704-10.397-1.371-20.22-5.375-25.72c-4.084-5.613-13.272-9.284-22.999-13.169
	c-8.607-3.438-17.505-6.993-25.387-12.729c-7.778-5.661-13.836-12.972-19.694-20.043c-6.727-8.117-13.079-15.786-19.829-17.976
	c-6.252-2.029-15.69,0.344-25.679,2.856c-9.152,2.303-18.619,4.682-28.67,4.682c-10.053,0-19.518-2.38-28.671-4.682
	c-9.99-2.512-19.43-4.887-25.679-2.856c-6.746,2.19-13.1,9.857-19.826,17.974c-5.86,7.071-11.918,14.383-19.699,20.046
	c-6.979,5.078-16.76,3.541-21.841-3.443c-5.08-6.981-3.54-16.76,3.443-21.841c4.604-3.352,9.177-8.869,14.019-14.712
	c8.843-10.673,18.867-22.771,34.246-27.765c14.807-4.806,29.764-1.047,42.961,2.273c7.645,1.921,14.865,3.738,21.045,3.738
	c6.179,0,13.398-1.817,21.043-3.738c13.197-3.319,28.155-7.079,42.961-2.273c15.379,4.994,25.404,17.093,34.248,27.766
	c4.84,5.842,9.413,11.36,14.017,14.712c4.715,3.432,11.452,6.124,18.587,8.974c12.792,5.111,27.291,10.903,36.681,23.808
	c9.309,12.79,10.361,28.31,11.289,42.004c0.525,7.729,1.019,15.031,2.861,20.704c1.704,5.244,5.477,11.194,9.473,17.493
	c7.465,11.768,15.928,25.108,15.928,41.54s-8.461,29.77-15.928,41.54c-3.996,6.299-7.77,12.248-9.471,17.491
	c-1.843,5.674-2.337,12.976-2.863,20.706c-0.929,13.694-1.981,29.215-11.291,42.007
	C469.389,332.583,464.626,334.814,459.798,334.814z"/>
<path style="fill:#CFF09E;" d="M398.54,305.355c0,19.785-18.837,36.352-24.635,54.205c-6.008,18.503-0.713,42.937-11.921,58.339
	c-11.321,15.554-36.271,18.017-51.827,29.337c-15.401,11.208-25.391,34.242-43.894,40.248c-17.853,5.797-39.392-6.776-59.176-6.776
	s-41.324,12.571-59.176,6.776c-18.503-6.008-28.493-29.04-43.894-40.248c-15.554-11.321-40.506-13.783-51.827-29.337
	c-11.208-15.401-5.914-39.836-11.921-58.339c-5.797-17.851-24.635-34.42-24.635-54.205s18.837-36.352,24.635-54.205
	c6.008-18.503,0.713-42.937,11.921-58.339c11.321-15.554,36.271-18.017,51.827-29.337c15.401-11.208,25.391-34.242,43.894-40.248
	c17.853-5.797,39.392,6.776,59.176,6.776s41.324-12.571,59.176-6.776c18.503,6.008,28.493,29.04,43.894,40.248
	c15.554,11.321,40.506,13.783,51.827,29.337c11.208,15.401,5.914,39.836,11.921,58.339
	C379.703,269.003,398.54,285.57,398.54,305.355z"/>
<g>
	<path style="fill:#507C5C;" d="M158.298,504.647c-5.489,0-10.465-0.749-15.215-2.292c-15.379-4.994-25.404-17.093-34.246-27.766
		c-4.842-5.842-9.413-11.36-14.019-14.712c-4.715-3.432-11.452-6.124-18.586-8.974C63.438,445.793,48.939,440,39.549,427.096
		c-9.309-12.79-10.361-28.31-11.289-42.004c-0.525-7.729-1.019-15.031-2.861-20.704c-1.704-5.244-5.477-11.194-9.473-17.493
		C8.461,335.127,0,321.788,0,305.355c0-16.433,8.461-29.772,15.928-41.543c3.996-6.297,7.769-12.248,9.473-17.491
		c1.842-5.674,2.336-12.975,2.861-20.704c0.929-13.694,1.981-29.215,11.291-42.007c9.388-12.901,23.887-18.695,36.681-23.806
		c7.134-2.85,13.871-5.541,18.586-8.972c4.604-3.352,9.177-8.869,14.019-14.712c8.843-10.675,18.867-22.773,34.248-27.766
		c4.748-1.542,9.726-2.292,15.214-2.292c9.601,0,18.825,2.32,27.744,4.564c7.645,1.921,14.865,3.738,21.045,3.738
		c6.18,0,13.4-1.817,21.045-3.74c8.921-2.243,18.145-4.564,27.746-4.564c5.489,0,10.464,0.749,15.212,2.29
		c15.379,4.994,25.404,17.093,34.248,27.766c4.842,5.842,9.413,11.361,14.019,14.713c4.717,3.432,11.454,6.124,18.587,8.974
		c12.792,5.111,27.291,10.903,36.681,23.804c9.309,12.792,10.362,28.312,11.289,42.006c0.525,7.729,1.019,15.031,2.861,20.706
		c1.704,5.244,5.477,11.192,9.473,17.491c7.465,11.769,15.928,25.11,15.928,41.543c0,16.433-8.461,29.772-15.928,41.543
		c-3.996,6.297-7.769,12.248-9.473,17.491c-1.842,5.672-2.336,12.973-2.859,20.703c-0.929,13.694-1.981,29.215-11.289,42.007
		c-9.391,12.903-23.889,18.695-36.682,23.806c-7.134,2.85-13.871,5.541-18.586,8.974c-4.606,3.352-9.179,8.871-14.021,14.713
		c-8.843,10.673-18.867,22.771-34.246,27.765c-4.748,1.542-9.726,2.292-15.214,2.292c-9.599,0-18.825-2.32-27.746-4.564
		c-7.645-1.921-14.865-3.738-21.045-3.738c-6.179,0-13.398,1.817-21.043,3.738C177.123,502.327,167.899,504.647,158.298,504.647z
		 M158.298,137.333c-2.159,0-3.977,0.25-5.558,0.763c-6.749,2.19-13.103,9.859-19.83,17.976
		c-5.858,7.071-11.916,14.383-19.694,20.043c-7.881,5.735-16.778,9.29-25.385,12.728c-9.729,3.887-18.917,7.558-22.999,13.169
		c-4.005,5.503-4.671,15.323-5.375,25.721c-0.63,9.288-1.28,18.892-4.32,28.246c-2.922,8.999-7.947,16.922-12.806,24.583
		c-5.688,8.971-11.063,17.443-11.063,24.794s5.375,15.823,11.063,24.791c4.859,7.662,9.885,15.586,12.807,24.588
		c3.036,9.352,3.687,18.956,4.318,28.244c0.704,10.397,1.37,20.22,5.375,25.72c4.084,5.613,13.272,9.283,22.999,13.169
		c8.607,3.438,17.505,6.993,25.387,12.729c7.778,5.661,13.836,12.972,19.694,20.043c6.727,8.117,13.079,15.786,19.829,17.976
		c1.582,0.514,3.4,0.763,5.559,0.763c5.727,0,12.718-1.759,20.119-3.619c9.152-2.301,18.619-4.682,28.67-4.682
		c10.053,0,19.518,2.38,28.671,4.682c7.401,1.86,14.391,3.619,20.119,3.619c2.159,0,3.977-0.25,5.559-0.763
		c6.746-2.19,13.1-9.857,19.826-17.975c5.86-7.071,11.918-14.383,19.699-20.046c7.88-5.735,16.777-9.29,25.383-12.728
		c9.729-3.887,18.917-7.556,23.001-13.169c4.004-5.502,4.668-15.323,5.375-25.723c0.628-9.287,1.28-18.891,4.317-28.243
		c2.924-9.001,7.948-16.924,12.807-24.585c5.689-8.969,11.063-17.441,11.063-24.794s-5.375-15.825-11.063-24.794
		c-4.859-7.661-9.884-15.582-12.806-24.583c-3.038-9.354-3.688-18.959-4.32-28.248c-0.704-10.397-1.37-20.22-5.375-25.72
		c-4.082-5.611-13.27-9.282-22.999-13.169c-8.607-3.438-17.504-6.993-25.385-12.728c-7.78-5.661-13.838-12.973-19.697-20.044
		c-6.726-8.117-13.078-15.786-19.827-17.976c-1.582-0.514-3.4-0.763-5.558-0.763c-5.728,0-12.718,1.759-20.119,3.619
		c-9.152,2.303-18.619,4.684-28.671,4.684s-19.518-2.381-28.671-4.684C171.016,139.09,164.026,137.333,158.298,137.333z"/>
	<path style="fill:#507C5C;" d="M147.11,265.631c-18.853,0-29.236,10.032-29.236,28.248v29.086
		c0,18.217,10.384,28.249,29.236,28.249c18.65,0,29.347-10.297,29.347-28.249v-29.086
		C176.455,275.927,165.759,265.631,147.11,265.631z M139.687,293.88c0-7.65,3.966-8.632,7.423-8.632
		c3.233,0,7.533,0.894,7.533,8.632v29.086c0,7.736-4.299,8.632-7.533,8.632c-3.457,0-7.423-0.98-7.423-8.632V293.88z"/>
	<path style="fill:#507C5C;" d="M230.637,265.631h-38.086c-5.685,0-9.809,3.202-9.809,7.614v69.698
		c0,4.484,4.485,7.614,10.908,7.614c6.422,0,10.906-3.13,10.906-7.614V316.97h14.23c4.925,0,7.503-4.437,7.503-8.821
		c0-5.239-3.157-9.041-7.503-9.041h-14.23v-13.86h26.084c4.418,0,7.504-4.079,7.504-9.918
		C238.141,269.619,235.057,265.631,230.637,265.631z"/>
	<path style="fill:#507C5C;" d="M287.167,265.631H249.08c-5.685,0-9.809,3.202-9.809,7.614v69.698c0,4.484,4.485,7.614,10.908,7.614
		c6.422,0,10.906-3.13,10.906-7.614V316.97h14.23c4.925,0,7.503-4.437,7.503-8.821c0-5.239-3.157-9.041-7.503-9.041h-14.23v-13.86
		h26.084c4.418,0,7.504-4.079,7.504-9.918C294.671,269.619,291.585,265.631,287.167,265.631z"/>
</g>
</svg>